<svg xmlns="http://www.w3.org/2000/svg" version="1.1" xmlns:xlink="http://www.w3.org/1999/xlink" xmlns:svgjs="http://svgjs.dev/svgjs" width="1440" height="560" preserveAspectRatio="none" viewBox="0 0 1440 560"><g mask="url(&quot;#SvgjsMask2066&quot;)" fill="none"><rect width="1440" height="560" x="0" y="0" fill="url(&quot;#SvgjsRadialGradient2067&quot;)"></rect><path d="M1488 560L0 560 L0 375.82Q0.01 303.83, 72 303.84Q121.19 233.02, 192 282.21Q279.56 249.76, 312 337.32Q353.38 306.69, 384 348.07Q431.35 323.42, 456 370.77Q475.89 270.66, 576 290.55Q630.84 225.39, 696 280.24Q757.3 269.54, 768 330.84Q821.8 264.64, 888 318.45Q917.04 275.49, 960 304.53Q1017.87 290.4, 1032 348.27Q1064.43 260.7, 1152 293.13Q1204.22 273.35, 1224 325.57Q1265.82 295.38, 1296 337.2Q1332.4 253.6, 1416 290Q1469.81 271.81, 1488 325.61z" fill="rgba(26, 216, 205, 1)"></path><path d="M1488 560L0 560 L0 420.86Q30.5 379.37, 72 409.87Q147.63 365.5, 192 441.12Q201.37 378.49, 264 387.85Q284.88 336.73, 336 357.61Q382.06 331.67, 408 377.73Q479.11 328.84, 528 399.94Q540.67 340.62, 600 353.29Q676.65 309.95, 720 386.6Q744.64 339.25, 792 363.89Q850.77 350.66, 864 409.44Q911.63 385.06, 936 432.69Q952.74 377.43, 1008 394.16Q1058.68 324.84, 1128 375.52Q1222.13 349.64, 1248 443.77Q1301.59 377.36, 1368 430.95Q1417.97 360.92, 1488 410.9z" fill="rgba(59, 188, 239, 1)"></path><path d="M1536 560L0 560 L0 440.96Q55.88 376.84, 120 432.72Q182.39 423.12, 192 485.51Q236.29 409.8, 312 454.09Q378.2 400.29, 432 466.49Q447.71 410.2, 504 425.91Q551.75 401.66, 576 449.41Q651.1 404.51, 696 479.61Q732.75 396.36, 816 433.1Q846.21 391.31, 888 421.53Q943 404.52, 960 459.52Q1031.04 410.56, 1080 481.6Q1158.18 439.79, 1200 517.97Q1210.73 456.7, 1272 467.43Q1298.49 421.92, 1344 448.41Q1400.74 433.15, 1416 489.89Q1463.19 417.08, 1536 464.27z" fill="rgba(40, 173, 197, 1)"></path><path d="M1488 560L0 560 L0 573.87Q64.65 518.52, 120 583.17Q159.81 502.98, 240 542.79Q249.84 480.63, 312 490.47Q378.05 436.52, 432 502.58Q513.59 464.16, 552 545.75Q624.38 498.13, 672 570.5Q714.2 540.7, 744 582.9Q745.84 512.74, 816 514.58Q840.87 467.45, 888 492.32Q970.88 455.21, 1008 538.09Q1034.19 492.28, 1080 518.47Q1133.47 499.94, 1152 553.42Q1180.88 510.31, 1224 539.19Q1282.21 525.4, 1296 583.61Q1345.99 513.6, 1416 563.58Q1439.11 514.68, 1488 537.79z" fill="rgba(44, 212, 194, 1)"></path></g><defs><mask id="SvgjsMask2066"><rect width="1440" height="560" fill="#ffffff"></rect></mask><radialGradient cx="100%" cy="50%" r="1466.97" gradientUnits="userSpaceOnUse" id="SvgjsRadialGradient2067"><stop stop-color="rgba(95, 5, 5, 1)" offset="0"></stop><stop stop-color="rgba(24, 28, 167, 1)" offset="0.82"></stop></radialGradient></defs></svg>