<svg xmlns="http://www.w3.org/2000/svg" version="1.1" xmlns:xlink="http://www.w3.org/1999/xlink" xmlns:svgjs="http://svgjs.dev/svgjs" width="1440" height="560" preserveAspectRatio="none" viewBox="0 0 1440 560"><g mask="url(&quot;#SvgjsMask2050&quot;)" fill="none"><rect width="1440" height="560" x="0" y="0" fill="url(&quot;#SvgjsRadialGradient2051&quot;)"></rect><path d="M1512 560L0 560 L0 299.63Q59.11 286.74, 72 345.85Q116.29 318.14, 144 362.44Q145.69 292.13, 216 293.83Q272.21 278.04, 288 334.26Q335.55 309.81, 360 357.35Q425.57 302.92, 480 368.49Q497.94 314.43, 552 332.37Q599.54 259.91, 672 307.45Q754.44 269.89, 792 352.33Q822 310.32, 864 340.32Q889.75 294.07, 936 319.83Q982.65 246.48, 1056 293.12Q1097.26 262.38, 1128 303.64Q1179.26 282.89, 1200 334.15Q1267.6 281.75, 1320 349.35Q1339.9 297.25, 1392 317.16Q1442.64 247.8, 1512 298.44z" fill="rgba(255, 0, 0, 1)"></path><path d="M1464 560L0 560 L0 447.79Q19.7 347.49, 120 367.18Q162.41 337.59, 192 379.99Q235.13 351.12, 264 394.24Q338.41 348.65, 384 423.06Q413.9 332.96, 504 362.85Q582.35 321.2, 624 399.54Q679.11 382.65, 696 437.76Q700.32 370.08, 768 374.4Q792.92 327.32, 840 352.25Q920.46 312.71, 960 393.16Q1035.4 348.57, 1080 423.97Q1107 378.97, 1152 405.96Q1165.75 347.71, 1224 361.46Q1290.19 307.65, 1344 373.85Q1440.7 350.55, 1464 447.25z" fill="rgba(194, 117, 24, 1)"></path><path d="M1488 560L0 560 L0 451.21Q77.14 408.35, 120 485.48Q150.07 443.55, 192 473.62Q242.49 404.11, 312 454.6Q331.8 402.4, 384 422.21Q466.84 385.05, 504 467.9Q577.42 421.32, 624 494.75Q633.1 431.85, 696 440.94Q750.83 375.77, 816 430.6Q894.14 388.74, 936 466.88Q994.03 452.91, 1008 510.95Q1054.28 437.23, 1128 483.51Q1156.32 391.83, 1248 420.15Q1329.63 381.78, 1368 463.41Q1414.64 390.05, 1488 436.69z" fill="rgba(227, 54, 16, 1)"></path><path d="M1560 560L0 560 L0 509.99Q68.28 458.27, 120 526.56Q187.93 474.49, 240 542.43Q288.1 518.53, 312 566.63Q357.21 539.84, 384 585.04Q401.59 530.63, 456 548.21Q471.85 492.06, 528 507.91Q571.67 479.58, 600 523.25Q673.72 476.97, 720 550.69Q792.51 503.21, 840 575.72Q857.6 473.32, 960 490.92Q1001.13 460.05, 1032 501.17Q1129.89 479.06, 1152 576.95Q1155.65 508.61, 1224 512.26Q1254.18 470.44, 1296 500.63Q1344.26 476.89, 1368 525.16Q1411.86 497.01, 1440 540.87Q1483.53 464.4, 1560 507.93z" fill="rgba(193, 76, 29, 1)"></path></g><defs><mask id="SvgjsMask2050"><rect width="1440" height="560" fill="#ffffff"></rect></mask><radialGradient cx="100%" cy="50%" r="1466.97" gradientUnits="userSpaceOnUse" id="SvgjsRadialGradient2051"><stop stop-color="rgba(95, 5, 5, 1)" offset="0"></stop><stop stop-color="rgba(24, 28, 167, 1)" offset="0.82"></stop></radialGradient></defs></svg>