<svg xmlns="http://www.w3.org/2000/svg" version="1.1" xmlns:xlink="http://www.w3.org/1999/xlink" xmlns:svgjs="http://svgjs.dev/svgjs" width="1440" height="560" preserveAspectRatio="none" viewBox="0 0 1440 560"><g mask="url(&quot;#SvgjsMask1981&quot;)" fill="none"><rect width="1440" height="560" x="0" y="0" fill="url(&quot;#SvgjsRadialGradient1982&quot;)"></rect><path d="M1488 560L0 560 L0 360.7Q36.03 276.73, 120 312.75Q195.42 268.17, 240 343.59Q252.86 284.45, 312 297.31Q356.55 269.86, 384 314.41Q460.52 270.94, 504 347.46Q529.9 301.36, 576 327.26Q627.73 258.99, 696 310.72Q744.73 239.45, 816 288.18Q881.1 233.28, 936 298.39Q1031.26 273.65, 1056 368.92Q1099.85 292.76, 1176 336.61Q1226.94 267.56, 1296 318.5Q1349.22 251.73, 1416 304.95Q1474.78 291.73, 1488 350.5z" fill="#182f5d"></path><path d="M1536 560L0 560 L0 441.81Q27.32 397.13, 72 424.46Q78 358.46, 144 364.46Q229.06 329.52, 264 414.59Q330.08 360.67, 384 426.75Q406.92 377.67, 456 400.59Q477.67 350.25, 528 371.92Q572.42 344.35, 600 388.77Q651.35 368.12, 672 419.46Q703.17 330.63, 792 361.8Q866.41 316.22, 912 390.63Q979.18 337.81, 1032 404.99Q1054.72 355.71, 1104 378.43Q1133.11 335.53, 1176 364.64Q1230.02 298.66, 1296 352.68Q1381.2 317.88, 1416 403.08Q1466.53 333.61, 1536 384.13z" fill="#25467d"></path><path d="M1488 560L0 560 L0 477.55Q46.72 404.27, 120 451Q144.1 403.1, 192 427.19Q281.51 396.7, 312 486.21Q361.17 463.38, 384 512.55Q398.5 407.04, 504 421.54Q577.09 374.63, 624 447.71Q714.79 418.5, 744 509.28Q768.68 461.96, 816 486.64Q824.98 423.62, 888 432.59Q918.66 391.25, 960 421.91Q1017.12 407.03, 1032 464.15Q1088.88 449.02, 1104 505.9Q1149.61 431.51, 1224 477.12Q1252.65 433.77, 1296 462.42Q1382.74 429.16, 1416 515.91Q1440.11 468.02, 1488 492.13z" fill="rgba(58, 120, 198, 1)"></path><path d="M1512 560L0 560 L0 559.46Q30.38 469.84, 120 500.21Q186.64 446.85, 240 513.48Q311.38 512.86, 312 584.23Q358.44 510.67, 432 557.11Q475.51 528.62, 504 572.13Q514.21 510.34, 576 520.54Q627.96 452.5, 696 504.45Q751.75 488.2, 768 543.95Q823.77 527.73, 840 583.5Q853.43 476.93, 960 490.37Q1001.35 459.72, 1032 501.07Q1110.21 507.28, 1104 585.49Q1137.23 546.73, 1176 579.96Q1194.48 526.44, 1248 544.92Q1282.93 459.85, 1368 494.78Q1411.78 466.55, 1440 510.33Q1491.25 489.58, 1512 540.83z" fill="rgba(37, 70, 125, 1)"></path></g><defs><mask id="SvgjsMask1981"><rect width="1440" height="560" fill="#ffffff"></rect></mask><radialGradient cx="100%" cy="50%" r="1466.97" gradientUnits="userSpaceOnUse" id="SvgjsRadialGradient1982"><stop stop-color="rgba(0, 2, 5, 1)" offset="0"></stop><stop stop-color="rgba(52, 92, 145, 1)" offset="0.82"></stop></radialGradient></defs></svg>