<svg xmlns="http://www.w3.org/2000/svg" version="1.1" xmlns:xlink="http://www.w3.org/1999/xlink" xmlns:svgjs="http://svgjs.dev/svgjs" width="1440" height="560" preserveAspectRatio="none" viewBox="0 0 1440 560"><g mask="url(&quot;#SvgjsMask2106&quot;)" fill="none"><rect width="1440" height="560" x="0" y="0" fill="url(&quot;#SvgjsRadialGradient2107&quot;)"></rect><path d="M1464 560L0 560 L0 369.42Q30.19 279.62, 120 309.81Q173.45 243.26, 240 296.71Q331.09 267.8, 360 358.89Q375.22 302.11, 432 317.32Q452.94 266.26, 504 287.2Q549.06 260.26, 576 305.32Q644.54 253.86, 696 322.4Q739.78 294.19, 768 337.97Q799.35 249.32, 888 280.67Q958.41 231.09, 1008 301.5Q1069.91 291.41, 1080 353.33Q1107.28 260.61, 1200 287.88Q1248.26 264.14, 1272 312.41Q1364 284.41, 1392 376.41Q1406.33 318.74, 1464 333.06z" fill="rgba(138, 22, 182, 1)"></path><path d="M1488 560L0 560 L0 363.97Q82.74 326.71, 120 409.45Q170.17 387.62, 192 437.79Q233.01 406.8, 264 447.81Q283.48 395.29, 336 414.78Q345.29 352.06, 408 361.35Q475.37 308.72, 528 376.08Q575 303.08, 648 350.09Q691.6 321.68, 720 365.28Q793.96 367.24, 792 441.2Q825.06 354.26, 912 387.32Q960.54 363.86, 984 412.4Q1061.63 370.03, 1104 447.66Q1140.84 364.5, 1224 401.33Q1278.87 336.2, 1344 391.07Q1399.42 374.5, 1416 429.92Q1459.6 401.52, 1488 445.12z" fill="rgba(193, 8, 245, 1)"></path><path d="M1464 560L0 560 L0 486.67Q48.41 463.08, 72 511.49Q99.14 418.63, 192 445.78Q269.67 403.44, 312 481.11Q388.89 438, 432 514.89Q442.17 453.06, 504 463.22Q531.94 419.17, 576 447.11Q625.7 424.81, 648 474.52Q689.21 443.73, 720 484.94Q723.57 416.5, 792 420.07Q867.79 423.87, 864 499.66Q906.38 470.04, 936 512.42Q952.96 457.38, 1008 474.33Q1049.12 443.44, 1080 484.56Q1122.82 407.38, 1200 450.19Q1286.21 416.4, 1320 502.62Q1363.17 473.79, 1392 516.96Q1403.44 456.41, 1464 467.85z" fill="rgba(80, 22, 87, 1)"></path><path d="M1512 560L0 560 L0 556.94Q72.93 509.87, 120 582.8Q138.61 481.41, 240 500.02Q313.93 453.95, 360 527.89Q433.29 481.18, 480 554.48Q493.13 495.61, 552 508.73Q595.69 480.42, 624 524.12Q713.41 493.53, 744 582.94Q793.37 512.31, 864 561.68Q880.65 506.33, 936 522.97Q983.43 498.4, 1008 545.83Q1048.21 466.04, 1128 506.25Q1170.59 476.84, 1200 519.43Q1286.26 485.68, 1320 571.94Q1349.26 529.21, 1392 558.47Q1422.42 468.89, 1512 499.31z" fill="rgba(158, 0, 126, 1)"></path></g><defs><mask id="SvgjsMask2106"><rect width="1440" height="560" fill="#ffffff"></rect></mask><radialGradient cx="100%" cy="50%" r="1466.97" gradientUnits="userSpaceOnUse" id="SvgjsRadialGradient2107"><stop stop-color="rgba(95, 5, 5, 1)" offset="0"></stop><stop stop-color="rgba(24, 28, 167, 1)" offset="0.82"></stop></radialGradient></defs></svg>