<svg xmlns="http://www.w3.org/2000/svg" version="1.1" xmlns:xlink="http://www.w3.org/1999/xlink" xmlns:svgjs="http://svgjs.dev/svgjs" width="1440" height="560" preserveAspectRatio="none" viewBox="0 0 1440 560"><g mask="url(&quot;#SvgjsMask2126&quot;)" fill="none"><rect width="1440" height="560" x="0" y="0" fill="url(&quot;#SvgjsRadialGradient2127&quot;)"></rect><path d="M1464 560L0 560 L0 334.23Q41 303.23, 72 344.23Q114.92 315.15, 144 358.07Q189.81 331.88, 216 377.7Q237.09 326.79, 288 347.88Q336.52 276.4, 408 324.92Q454.38 251.3, 528 297.68Q555.33 253.01, 600 280.34Q681.63 241.97, 720 323.6Q770.19 301.79, 792 351.98Q819.38 259.37, 912 286.75Q955.41 258.16, 984 301.57Q1044.46 290.03, 1056 350.49Q1106.08 280.56, 1176 330.64Q1228.2 310.84, 1248 363.04Q1255.29 298.33, 1320 305.61Q1372.07 285.68, 1392 337.75Q1418.65 292.4, 1464 319.06z" fill="rgba(225, 132, 15, 1)"></path><path d="M1512 560L0 560 L0 379.75Q55.74 363.5, 72 419.24Q119.79 347.03, 192 394.83Q241.89 324.72, 312 374.61Q405.06 347.67, 432 440.73Q466.44 355.17, 552 389.61Q620 337.61, 672 405.6Q693.69 355.29, 744 376.98Q772.11 333.09, 816 361.2Q914.39 339.59, 936 437.97Q943.47 373.44, 1008 380.9Q1038.8 339.7, 1080 370.5Q1155.01 325.5, 1200 400.51Q1283.38 363.89, 1320 447.27Q1346.61 401.88, 1392 428.48Q1421.63 338.11, 1512 367.74z" fill="rgba(235, 148, 70, 1)"></path><path d="M1560 560L0 560 L0 515.22Q-7.38 435.84, 72 428.46Q130.19 414.65, 144 472.85Q193.19 450.04, 216 499.22Q253.93 417.15, 336 455.08Q364.94 412.02, 408 440.96Q465.92 426.88, 480 484.79Q556.31 441.11, 600 517.42Q612.45 457.87, 672 470.32Q718.22 396.54, 792 442.76Q849.21 427.97, 864 485.18Q892.5 441.68, 936 470.17Q973.48 387.65, 1056 425.14Q1105.23 402.37, 1128 451.6Q1177.56 429.16, 1200 478.72Q1240.45 399.17, 1320 439.62Q1370.54 370.16, 1440 420.7Q1522.48 383.18, 1560 465.66z" fill="rgba(239, 183, 8, 1)"></path><path d="M1488 560L0 560 L0 554.82Q43.13 525.95, 72 569.07Q107.07 484.14, 192 519.22Q234.28 489.5, 264 531.79Q316.83 512.62, 336 565.45Q345.5 502.95, 408 512.44Q473.61 458.05, 528 523.65Q593.83 517.48, 600 583.31Q621.77 485.08, 720 506.85Q773.11 439.96, 840 493.06Q895.84 476.9, 912 532.75Q993.27 494.02, 1032 575.29Q1038.99 510.28, 1104 517.27Q1145.99 487.26, 1176 529.26Q1223.69 456.95, 1296 504.65Q1325.53 462.18, 1368 491.71Q1458.24 461.95, 1488 552.19z" fill="rgba(214, 130, 26, 1)"></path></g><defs><mask id="SvgjsMask2126"><rect width="1440" height="560" fill="#ffffff"></rect></mask><radialGradient cx="100%" cy="50%" r="1466.97" gradientUnits="userSpaceOnUse" id="SvgjsRadialGradient2127"><stop stop-color="rgba(95, 5, 5, 1)" offset="0"></stop><stop stop-color="rgba(24, 28, 167, 1)" offset="0.82"></stop></radialGradient></defs></svg>