<svg xmlns="http://www.w3.org/2000/svg" version="1.1" xmlns:xlink="http://www.w3.org/1999/xlink" xmlns:svgjs="http://svgjs.dev/svgjs" width="1440" height="560" preserveAspectRatio="none" viewBox="0 0 1440 560"><g mask="url(&quot;#SvgjsMask2086&quot;)" fill="none"><rect width="1440" height="560" x="0" y="0" fill="url(&quot;#SvgjsRadialGradient2087&quot;)"></rect><path d="M1488 560L0 560 L0 367.05Q15.53 310.58, 72 326.11Q145.21 279.32, 192 352.53Q245.09 285.62, 312 338.7Q351.05 257.75, 432 296.8Q505.8 250.6, 552 324.39Q635.55 287.94, 672 371.49Q675.07 302.56, 744 305.62Q794.28 235.9, 864 286.18Q961.06 263.24, 984 360.29Q1033.41 289.7, 1104 339.11Q1141.28 256.39, 1224 293.67Q1265.83 263.5, 1296 305.32Q1367.76 305.08, 1368 376.84Q1407.93 296.77, 1488 336.71z" fill="rgba(44, 14, 100, 1)"></path><path d="M1488 560L0 560 L0 355.39Q64.86 348.25, 72 413.1Q87.91 357.01, 144 372.92Q172.75 329.67, 216 358.42Q270.42 340.84, 288 395.26Q341.19 328.45, 408 381.64Q474.85 376.49, 480 443.33Q522.46 365.79, 600 408.26Q624.38 360.64, 672 385.02Q749.24 342.26, 792 419.5Q819.99 327.49, 912 355.48Q994.66 318.14, 1032 400.81Q1104.18 352.99, 1152 425.17Q1159.9 361.08, 1224 368.98Q1278.57 303.55, 1344 358.11Q1414 356.12, 1416 426.12Q1434.27 372.38, 1488 390.65z" fill="rgba(18, 12, 185, 1)"></path><path d="M1488 560L0 560 L0 517.21Q31.12 476.34, 72 507.46Q88.49 451.94, 144 468.43Q213.48 417.91, 264 487.39Q333.66 437.05, 384 506.71Q393.28 443.99, 456 453.26Q482.01 407.27, 528 433.29Q625.99 411.28, 648 509.28Q662.33 451.61, 720 465.94Q791.14 417.09, 840 488.23Q852.72 428.95, 912 441.67Q977.1 386.77, 1032 451.87Q1083.56 431.43, 1104 482.98Q1156.99 463.98, 1176 516.97Q1230.9 451.87, 1296 506.77Q1319.93 410.7, 1416 434.63Q1459.8 406.43, 1488 450.22z" fill="rgba(14, 4, 121, 1)"></path><path d="M1488 560L0 560 L0 573.71Q-0.2 501.51, 72 501.31Q121.19 478.5, 144 527.7Q216.38 480.09, 264 552.47Q304.1 472.57, 384 512.66Q473.44 482.1, 504 571.53Q553.19 500.72, 624 549.92Q634.47 488.39, 696 498.86Q771.34 454.2, 816 529.55Q887.12 480.66, 936 551.78Q970.22 466, 1056 500.21Q1105.31 477.51, 1128 526.82Q1180.02 458.84, 1248 510.86Q1298.55 441.4, 1368 491.95Q1468.15 472.11, 1488 572.26z" fill="rgba(65, 69, 219, 1)"></path></g><defs><mask id="SvgjsMask2086"><rect width="1440" height="560" fill="#ffffff"></rect></mask><radialGradient cx="100%" cy="50%" r="1466.97" gradientUnits="userSpaceOnUse" id="SvgjsRadialGradient2087"><stop stop-color="rgba(95, 5, 5, 1)" offset="0"></stop><stop stop-color="rgba(24, 28, 167, 1)" offset="0.82"></stop></radialGradient></defs></svg>